<?xml version="1.0" encoding="UTF-8" standalone="no"?>
<!-- Created with Inkscape (http://www.inkscape.org/) -->

<svg
   xmlns:dc="http://purl.org/dc/elements/1.1/"
   xmlns:cc="http://creativecommons.org/ns#"
   xmlns:rdf="http://www.w3.org/1999/02/22-rdf-syntax-ns#"
   xmlns:svg="http://www.w3.org/2000/svg"
   xmlns="http://www.w3.org/2000/svg"
   xmlns:sodipodi="http://sodipodi.sourceforge.net/DTD/sodipodi-0.dtd"
   xmlns:inkscape="http://www.inkscape.org/namespaces/inkscape"
   id="svg4155"
   version="1.1"
   inkscape:version="0.91 r"
   xml:space="preserve"
   width="541.67615"
   height="65.043251"
   viewBox="0 0 541.67615 65.043251"
   sodipodi:docname="DCLogo.svg"><metadata
     id="metadata4161"><rdf:RDF><cc:Work
         rdf:about=""><dc:format>image/svg+xml</dc:format><dc:type
           rdf:resource="http://purl.org/dc/dcmitype/StillImage" /><dc:title></dc:title></cc:Work></rdf:RDF></metadata><defs
     id="defs4159"><clipPath
       clipPathUnits="userSpaceOnUse"
       id="clipPath4169"><path
         d="M 0,792 612,792 612,0 0,0 0,792 Z"
         id="path4171"
         inkscape:connector-curvature="0" /></clipPath><clipPath
       clipPathUnits="userSpaceOnUse"
       id="clipPath4185"><path
         d="m 497.152,397.011 32.159,0 0,36.563 -32.159,0 0,-36.563 z"
         id="path4187"
         inkscape:connector-curvature="0" /></clipPath><clipPath
       clipPathUnits="userSpaceOnUse"
       id="clipPath4197"><path
         d="M 0,792 612,792 612,0 0,0 0,792 Z"
         id="path4199"
         inkscape:connector-curvature="0" /></clipPath></defs><sodipodi:namedview
     pagecolor="#ffffff"
     bordercolor="#666666"
     borderopacity="1"
     objecttolerance="10"
     gridtolerance="10"
     guidetolerance="10"
     inkscape:pageopacity="0"
     inkscape:pageshadow="2"
     inkscape:window-width="2560"
     inkscape:window-height="1497"
     id="namedview4157"
     showgrid="false"
     inkscape:zoom="1.2131313"
     inkscape:cx="261.60513"
     inkscape:cy="16.925375"
     inkscape:window-x="0"
     inkscape:window-y="0"
     inkscape:window-maximized="1"
     inkscape:current-layer="g4163"
     fit-margin-top="0"
     fit-margin-left="0"
     fit-margin-right="0"
     fit-margin-bottom="0" /><g
     id="g4163"
     inkscape:groupmode="layer"
     inkscape:label="DC_logo_LFC_long_floating"
     transform="matrix(1.25,0,0,-1.25,-120.89488,543.11787)"><g
       id="g4165"
       inkscape:export-xdpi="166.14999"
       inkscape:export-ydpi="166.14999"><g
         id="g4167"
         clip-path="url(#clipPath4169)"><g
           id="g4173"
           transform="translate(101.3599,429.3893)"><path
             d="m 0,0 7.87,0 c 5.742,0 10.646,-2.033 14.711,-6.097 4.065,-4.065 6.097,-8.969 6.097,-14.712 0,-5.742 -2.032,-10.647 -6.097,-14.711 -4.065,-4.065 -8.969,-6.097 -14.711,-6.097 L 0,-41.617 0,0 Z m 7.87,-46.261 c 7.019,0 13.021,2.493 18.008,7.48 4.963,4.962 7.444,10.953 7.444,17.972 0,7.019 -2.481,13.01 -7.444,17.973 C 20.891,2.15 14.889,4.644 7.87,4.644 l -12.514,0 0,-50.905 12.514,0 z m 33.016,51.153 4.715,0 0,-51.153 -4.715,0 0,51.153 z M 78.9,-46.758 c 3.521,0 6.9,0.686 10.138,2.057 l 1.418,0.602 0,25.772 -15.278,0 0,-4.68 10.599,0 0,-17.937 c -2.222,-0.756 -4.514,-1.134 -6.877,-1.134 -5.861,0 -10.871,2.079 -15.03,6.239 -4.16,4.159 -6.24,9.169 -6.24,15.03 0,5.861 2.08,10.871 6.24,15.031 4.159,4.135 9.169,6.203 15.03,6.203 2.883,0 5.636,-0.555 8.26,-1.666 l 1.843,4.325 C 85.789,4.431 82.421,5.105 78.9,5.105 c -7.161,0 -13.27,-2.529 -18.327,-7.586 -5.082,-5.082 -7.622,-11.191 -7.622,-18.328 0,-7.16 2.54,-13.27 7.622,-18.327 5.057,-5.081 11.166,-7.622 18.327,-7.622 m 19.013,51.65 4.715,0 0,-51.153 -4.715,0 0,51.153 z m 43.509,-0.248 0,-4.679 -13.328,0 0,-46.226 -4.68,0 0,46.226 -13.364,0 0,4.679 31.372,0 z m 36.632,0 0,-50.905 -4.644,0 0,12.726 -20.206,0 -8.047,-12.726 -5.53,0 32.188,50.905 6.239,0 z m -21.907,-33.5 17.263,0 0,27.261 -17.263,-27.261 z m 37.943,33.5 0,-46.226 23.645,0 0,-4.679 -28.324,0 0,50.905 4.679,0 z"
             style="fill:#ffffff;fill-opacity:1;fill-rule:nonzero;stroke:none"
             id="path4175"
             inkscape:connector-curvature="0" /></g><g
           id="g4177"
           transform="translate(316.0213,422.3215)"><path
             d="m 0,0 c 0.667,1.734 1.579,3.209 2.735,4.425 1.156,1.215 2.512,2.149 4.069,2.801 1.556,0.652 3.231,0.978 5.025,0.978 2.075,0 3.913,-0.585 5.514,-1.756 1.601,-1.171 3.053,-3.009 4.358,-5.514 l 2.245,1.512 c -0.637,1.037 -1.4,2.038 -2.29,3.001 -0.889,0.964 -1.909,1.812 -3.057,2.546 -1.149,0.734 -2.416,1.323 -3.802,1.768 -1.386,0.445 -2.902,0.667 -4.547,0.667 -1.734,0 -3.365,-0.2 -4.892,-0.6 C 3.832,9.427 2.427,8.868 1.145,8.149 -0.137,7.43 -1.29,6.566 -2.312,5.559 -3.335,4.55 -4.199,3.442 -4.903,2.234 -5.607,1.026 -6.148,-0.263 -6.526,-1.634 -6.904,-3.005 -7.093,-4.417 -7.093,-5.87 c 0,-1.453 0.185,-2.861 0.556,-4.224 0.37,-1.364 0.901,-2.643 1.59,-3.836 0.689,-1.193 1.534,-2.286 2.535,-3.279 1,-0.994 2.134,-1.842 3.401,-2.546 1.268,-0.704 2.657,-1.253 4.169,-1.645 1.512,-0.393 3.12,-0.59 4.825,-0.59 1.779,0 3.387,0.223 4.825,0.667 1.438,0.445 2.727,1.034 3.869,1.768 1.141,0.734 2.145,1.582 3.012,2.546 0.868,0.963 1.62,1.964 2.257,3.001 l -2.179,1.401 c -0.444,-0.875 -1.008,-1.738 -1.689,-2.59 -0.682,-0.853 -1.457,-1.616 -2.324,-2.29 -0.867,-0.675 -1.805,-1.223 -2.813,-1.646 -1.008,-0.422 -2.053,-0.633 -3.135,-0.633 -1.823,0 -3.516,0.314 -5.08,0.945 -1.564,0.63 -2.917,1.541 -4.058,2.735 -1.141,1.193 -2.038,2.649 -2.69,4.369 -0.653,1.719 -0.979,3.668 -0.979,5.847 0,2.179 0.334,4.136 1.001,5.87 m 51.16,-6.404 0,-14.852 5.203,0 0,30.972 -5.203,0 0,-14.118 -15.563,0 0,14.118 -5.203,0 0,-30.972 5.203,0 0,14.852 15.563,0 z m 12.985,-14.852 5.203,0 0,30.972 -5.203,0 0,-30.972 z M 82.888,0 c 0.667,1.734 1.578,3.209 2.735,4.425 1.156,1.215 2.512,2.149 4.068,2.801 1.557,0.652 3.232,0.978 5.025,0.978 2.075,0 3.914,-0.585 5.514,-1.756 1.601,-1.171 3.054,-3.009 4.358,-5.514 l 2.246,1.512 c -0.637,1.037 -1.401,2.038 -2.29,3.001 -0.889,0.964 -1.909,1.812 -3.057,2.546 -1.149,0.734 -2.416,1.323 -3.802,1.768 -1.386,0.445 -2.902,0.667 -4.547,0.667 -1.734,0 -3.365,-0.2 -4.892,-0.6 C 86.719,9.427 85.315,8.868 84.033,8.149 82.751,7.43 81.598,6.566 80.575,5.559 79.553,4.55 78.689,3.442 77.985,2.234 77.281,1.026 76.74,-0.263 76.362,-1.634 75.984,-3.005 75.795,-4.417 75.795,-5.87 c 0,-1.453 0.185,-2.861 0.556,-4.224 0.37,-1.364 0.9,-2.643 1.59,-3.836 0.689,-1.193 1.534,-2.286 2.534,-3.279 1.001,-0.994 2.135,-1.842 3.402,-2.546 1.268,-0.704 2.657,-1.253 4.169,-1.645 1.512,-0.393 3.12,-0.59 4.825,-0.59 1.779,0 3.387,0.223 4.825,0.667 1.437,0.445 2.727,1.034 3.869,1.768 1.141,0.734 2.145,1.582 3.012,2.546 0.867,0.963 1.62,1.964 2.257,3.001 l -2.179,1.401 c -0.445,-0.875 -1.008,-1.738 -1.69,-2.59 -0.682,-0.853 -1.456,-1.616 -2.323,-2.29 -0.867,-0.675 -1.805,-1.223 -2.813,-1.646 -1.008,-0.422 -2.053,-0.633 -3.135,-0.633 -1.823,0 -3.517,0.314 -5.08,0.945 -1.564,0.63 -2.917,1.541 -4.058,2.735 -1.142,1.193 -2.038,2.649 -2.69,4.369 -0.653,1.719 -0.979,3.668 -0.979,5.847 0,2.179 0.334,4.136 1.001,5.87 m 41.533,10.428 -14.919,-31.684 2.601,0 4.892,10.339 13.273,0 4.736,-10.339 5.292,0 -14.586,31.684 -1.289,0 z m -0.734,-7.093 5.625,-12.251 -11.406,0 5.781,12.251 z m 43.757,3.113 c 1.601,-1.171 3.053,-3.009 4.358,-5.514 l 2.245,1.512 c -0.637,1.037 -1.4,2.038 -2.29,3.001 -0.889,0.964 -1.908,1.812 -3.057,2.546 -1.149,0.734 -2.416,1.323 -3.802,1.768 -1.386,0.445 -2.902,0.667 -4.547,0.667 -1.72,0 -3.339,-0.204 -4.858,-0.612 -1.52,-0.407 -2.924,-0.978 -4.213,-1.712 -1.29,-0.733 -2.45,-1.608 -3.48,-2.623 -1.031,-1.016 -1.901,-2.131 -2.613,-3.347 -0.711,-1.215 -1.26,-2.512 -1.645,-3.891 -0.386,-1.378 -0.578,-2.794 -0.578,-4.246 0,-1.453 0.2,-2.857 0.6,-4.214 0.4,-1.356 0.971,-2.627 1.712,-3.813 0.741,-1.186 1.642,-2.268 2.702,-3.246 1.059,-0.978 2.245,-1.816 3.557,-2.513 1.312,-0.696 2.742,-1.237 4.291,-1.623 1.549,-0.385 3.176,-0.578 4.881,-0.578 1.615,0 3.064,0.064 4.347,0.189 1.282,0.126 2.453,0.319 3.513,0.578 1.059,0.26 2.049,0.575 2.968,0.945 0.919,0.371 1.83,0.801 2.735,1.29 l 0,13.63 -11.051,0 0,-1.846 5.848,0 0,-10.872 c -0.86,-0.682 -1.838,-1.209 -2.935,-1.579 -1.097,-0.371 -2.327,-0.556 -3.691,-0.556 -1.868,0 -3.617,0.334 -5.247,1.001 -1.631,0.667 -3.046,1.615 -4.247,2.846 -1.201,1.23 -2.149,2.719 -2.846,4.469 -0.697,1.749 -1.045,3.713 -1.045,5.892 0,2.179 0.319,4.143 0.956,5.892 0.637,1.749 1.531,3.238 2.679,4.469 1.149,1.23 2.509,2.179 4.08,2.846 1.571,0.667 3.291,1 5.159,1 2.075,0 3.913,-0.585 5.514,-1.756"
             style="fill:#c42f40;fill-opacity:1;fill-rule:nonzero;stroke:none"
             id="path4179"
             inkscape:connector-curvature="0" /></g></g></g><g
       id="g4181"
       inkscape:export-xdpi="166.14999"
       inkscape:export-ydpi="166.14999"><g
         id="g4183"
         clip-path="url(#clipPath4185)"><g
           id="g4189"
           transform="translate(529.2826,433.5695)"><path
             d="m 0,0 c -5.582,-2.251 -11.453,0.63 -16.185,-4.504 -4.863,4.871 -10.481,2.246 -15.862,4.48 -0.026,0.008 -0.052,0.017 -0.083,0.028 0.011,-1.163 0.001,-16.292 0.003,-30.801 4.64,-2.476 11.74,1.103 15.942,-5.762 4.074,6.936 11.09,3.705 16.185,5.762 C 0.054,-8.942 0.017,-9.486 0,0"
             style="fill:#c42f40;fill-opacity:1;fill-rule:nonzero;stroke:none"
             id="path4191"
             inkscape:connector-curvature="0" /></g></g></g><g
       id="g4193"
       inkscape:export-xdpi="166.14999"
       inkscape:export-ydpi="166.14999"><g
         id="g4195"
         clip-path="url(#clipPath4197)"><g
           id="g4201"
           transform="translate(332.8301,388.459)"><path
             d="m 0,0 c 0,0.871 -0.012,1.166 -0.023,1.73 -0.013,0.724 -0.221,0.822 -1.228,0.822 -0.135,0 -0.135,0.098 -0.135,0.209 0,0.073 0.025,0.159 0.111,0.159 0.097,0 1.103,-0.049 1.877,-0.049 0.785,0 1.852,0.049 1.951,0.049 0.086,0 0.109,-0.086 0.109,-0.159 0,-0.111 0,-0.209 -0.135,-0.209 C 1.461,2.552 1.252,2.454 1.24,1.73 1.228,1.166 1.215,0.871 1.215,0 l 0,-3.006 c 0,-0.527 0.013,-1.324 0.037,-1.937 0.012,-0.443 0.355,-0.504 1.288,-0.504 1.89,0 2.784,0.061 3.361,1.803 0.086,0.258 0.062,0.344 0.172,0.344 0.234,0 0.258,-0.037 0.258,-0.147 0,-0.062 -0.258,-1.068 -0.466,-2.307 -0.012,-0.073 -0.062,-0.098 -0.123,-0.098 -0.135,0 -0.282,0.025 -5.079,0.025 -1.804,0 -1.852,-0.025 -1.938,-0.025 -0.098,0 -0.098,0.049 -0.098,0.16 0,0.134 0,0.209 0.281,0.209 0.97,0 1.043,0.208 1.056,0.54 C -0.012,-4.33 0,-3.533 0,-3.006 L 0,0 Z"
             style="fill:#ffffff;fill-opacity:1;fill-rule:nonzero;stroke:none"
             id="path4203"
             inkscape:connector-curvature="0" /></g><g
           id="g4205"
           transform="translate(346.8955,386.2021)"><path
             d="m 0,0 -1.3,3.595 -0.025,0 c -0.086,0 -1.251,-3.288 -1.251,-3.46 C -2.576,0 -2.503,0 -2.11,0 L 0,0 Z m -2.368,-0.405 c -0.356,0 -0.404,0 -0.502,-0.258 -0.516,-1.35 -0.676,-1.913 -0.676,-2.122 0,-0.159 0,-0.442 0.639,-0.442 0.736,0 0.785,-0.049 0.785,-0.171 0,-0.148 -0.025,-0.197 -0.148,-0.197 -0.098,0 -0.257,0.025 -1.717,0.025 -0.748,0 -0.871,-0.025 -0.969,-0.025 -0.062,0 -0.086,0.062 -0.086,0.208 0,0.099 0.123,0.16 0.453,0.16 0.234,0 0.467,0.148 0.626,0.625 0.749,2.172 1.693,4.822 2.884,7.791 0.036,0.111 0.086,0.111 0.232,0.111 0.111,0 0.148,0 0.209,-0.148 0.086,-0.209 2.135,-5.827 2.993,-7.79 0.197,-0.454 0.455,-0.589 0.933,-0.589 0.11,0 0.367,-0.037 0.367,-0.134 0,-0.086 -0.023,-0.234 -0.134,-0.234 -0.123,0 -0.221,0.025 -1.706,0.025 -1.656,0 -1.742,-0.025 -1.828,-0.025 -0.049,0 -0.06,0.098 -0.06,0.221 0,0.123 0.269,0.147 0.514,0.147 0.492,0 0.651,0.062 0.651,0.27 0,0.295 -0.737,2.036 -0.933,2.552 l -2.527,0 z"
             style="fill:#ffffff;fill-opacity:1;fill-rule:nonzero;stroke:none"
             id="path4207"
             inkscape:connector-curvature="0" /></g><g
           id="g4209"
           transform="translate(360.4824,383.6621)"><path
             d="m 0,0 c 0.65,-0.687 1.066,-0.687 1.459,-0.687 0.369,0 0.381,-0.085 0.381,-0.209 0,-0.11 -0.025,-0.159 -0.123,-0.159 -0.086,0 -0.196,0.025 -2.061,0.025 -1.816,0 -1.902,-0.025 -1.975,-0.025 -0.099,0 -0.099,0.098 -0.099,0.245 0,0.062 0.123,0.123 0.65,0.123 0.271,0 0.357,0.135 0.357,0.258 0,0.085 0,0.171 -0.159,0.343 -0.871,0.957 -2.406,2.675 -2.748,2.944 -0.185,0.148 -0.357,0.148 -0.639,0.148 l 0,-1.215 c 0,-0.527 0.013,-1.324 0.037,-1.937 0.012,-0.333 0.086,-0.541 1.055,-0.541 0.344,0 0.344,-0.074 0.344,-0.209 0,-0.11 0,-0.159 -0.098,-0.159 -0.086,0 -0.135,0.025 -1.951,0.025 -1.803,0 -1.853,-0.025 -1.939,-0.025 -0.097,0 -0.097,0.049 -0.097,0.159 0,0.135 0,0.209 0.342,0.209 0.97,0 1.043,0.208 1.056,0.541 0.024,0.613 0.036,1.41 0.036,1.937 l 0,3.006 c 0,0.871 -0.012,1.166 -0.023,1.73 -0.013,0.724 -0.221,0.822 -1.289,0.822 -0.135,0 -0.135,0.098 -0.135,0.209 0,0.073 0.025,0.159 0.11,0.159 0.099,0 1.165,-0.049 1.939,-0.049 0.785,0 1.852,0.049 1.951,0.049 0.086,0 0.109,-0.086 0.109,-0.159 0,-0.111 0,-0.209 -0.135,-0.209 -1.066,0 -1.275,-0.098 -1.287,-0.822 -0.012,-0.564 -0.025,-0.859 -0.025,-1.73 l 0,-1.484 c 0.368,0 0.478,0 0.736,0.269 2.896,2.933 3.117,3.141 3.117,3.436 0,0.183 -0.013,0.331 -0.835,0.331 -0.135,0 -0.147,0.061 -0.147,0.184 0,0.049 0.037,0.184 0.123,0.184 0.258,0 1.337,-0.049 1.533,-0.049 0.283,0 1.068,0.049 1.313,0.049 0.11,0 0.123,-0.086 0.123,-0.184 0,-0.136 -0.013,-0.184 -0.16,-0.184 -0.614,0 -0.859,-0.062 -1.791,-0.994 L -3.313,3.963 c -0.098,-0.11 -0.171,-0.172 -0.171,-0.221 0,-0.061 0.11,-0.147 0.269,-0.319 L 0,0 Z"
             style="fill:#ffffff;fill-opacity:1;fill-rule:nonzero;stroke:none"
             id="path4211"
             inkscape:connector-curvature="0" /></g><g
           id="g4213"
           transform="translate(366.7559,382.6318)"><path
             d="m 0,0 c -1.803,0 -1.853,-0.024 -1.938,-0.024 -0.099,0 -0.099,0.048 -0.099,0.159 0,0.135 0,0.209 0.258,0.209 0.969,0 1.043,0.208 1.055,0.54 0.025,0.613 0.037,1.41 0.037,1.937 l 0,3.006 c 0,0.871 -0.012,1.166 -0.024,1.731 -0.013,0.723 -0.221,0.821 -1.203,0.821 -0.135,0 -0.135,0.099 -0.135,0.209 0,0.073 0.025,0.159 0.111,0.159 0.098,0 1.165,-0.049 1.938,-0.049 1.436,0 3.227,0.049 4.122,0.049 0.282,0 0.442,0 0.466,-0.098 C 4.907,7.521 5.128,6.993 5.128,6.919 5.128,6.846 5.055,6.833 4.944,6.833 4.748,6.833 4.649,7.189 3.57,8.097 3.387,8.257 3.092,8.379 2.724,8.379 2.404,8.379 1.35,8.33 0.883,8.306 0.602,8.293 0.527,8.048 0.527,7.36 l 0,-2.821 0.823,0 c 1.324,0 1.422,0.54 1.447,0.675 0.147,0.908 0.184,0.908 0.269,0.908 0.149,0 0.235,-0.013 0.235,-0.086 l 0,-1.841 c 0,-0.735 0.06,-1.153 0.06,-1.46 C 3.361,2.649 3.275,2.638 3.202,2.638 3.055,2.638 3.03,2.687 3.018,2.772 2.834,4.098 2.613,4.171 1.424,4.171 l -0.897,0 0,-3.165 c 0,-0.479 0.148,-0.638 0.602,-0.638 l 2.92,0 c 0.466,0 1.178,1.178 1.435,1.509 C 5.533,1.926 5.57,1.95 5.644,1.95 5.766,1.95 5.84,1.938 5.84,1.864 5.84,1.828 5.201,0 5.066,0 L 0,0 Z"
             style="fill:#ffffff;fill-opacity:1;fill-rule:nonzero;stroke:none"
             id="path4215"
             inkscape:connector-curvature="0" /></g><g
           id="g4217"
           transform="translate(382.5352,388.459)"><path
             d="m 0,0 c 0,0.871 -0.013,1.166 -0.025,1.73 -0.012,0.724 -0.221,0.822 -1.202,0.822 -0.135,0 -0.135,0.098 -0.135,0.209 0,0.073 0.024,0.159 0.11,0.159 0.098,0 1.166,-0.049 1.939,-0.049 1.435,0 3.226,0.049 4.122,0.049 0.282,0 0.441,0 0.466,-0.098 C 5.594,1.693 5.814,1.166 5.814,1.092 5.814,1.019 5.741,1.006 5.631,1.006 5.435,1.006 5.336,1.362 4.257,2.27 4.072,2.43 3.778,2.552 3.41,2.552 3.092,2.552 2.036,2.503 1.57,2.479 1.287,2.466 1.214,2.221 1.214,1.533 l 0,-2.894 0.822,0 c 1.325,0 1.423,0.539 1.448,0.674 0.147,0.908 0.184,0.908 0.27,0.908 0.146,0 0.232,-0.012 0.232,-0.086 l 0,-1.84 c 0,-0.736 0.062,-1.153 0.062,-1.46 0,-0.086 -0.086,-0.098 -0.159,-0.098 -0.148,0 -0.172,0.049 -0.184,0.135 -0.184,1.325 -0.405,1.399 -1.596,1.399 l -0.895,0 0,-1.277 c 0,-0.527 0.013,-1.324 0.037,-1.937 0.013,-0.332 0.086,-0.54 1.056,-0.54 0.464,0 0.464,-0.075 0.464,-0.209 0,-0.111 0,-0.16 -0.22,-0.16 -0.086,0 -0.135,0.025 -1.95,0.025 -1.718,0 -1.767,-0.025 -1.853,-0.025 -0.098,0 -0.098,0.049 -0.098,0.16 0,0.134 0,0.209 0.258,0.209 0.969,0 1.043,0.208 1.055,0.54 C -0.013,-4.33 0,-3.533 0,-3.006 L 0,0 Z"
             style="fill:#ffffff;fill-opacity:1;fill-rule:nonzero;stroke:none"
             id="path4219"
             inkscape:connector-curvature="0" /></g><g
           id="g4221"
           transform="translate(395.9004,391.1699)"><path
             d="m 0,0 c -2.858,0 -3.079,-3.201 -3.079,-4.207 0,-1.693 0.821,-4.184 3.079,-4.184 2.896,0 3.092,2.736 3.092,4.196 C 3.092,-2.44 2.27,0 0,0 m 0,-8.71 c -3.3,0 -4.539,2.626 -4.539,4.27 0,2.956 2.196,4.759 4.539,4.759 2.601,0 4.552,-1.557 4.552,-4.698 C 4.552,-6.084 3.313,-8.71 0,-8.71"
             style="fill:#ffffff;fill-opacity:1;fill-rule:nonzero;stroke:none"
             id="path4223"
             inkscape:connector-curvature="0" /></g><g
           id="g4225"
           transform="translate(407.3516,386.8887)"><path
             d="m 0,0 c 1.472,0 2.012,0.97 2.012,2.086 0,1.129 -0.687,2.036 -2.098,2.036 -0.748,0 -0.92,-0.061 -0.92,-0.871 L -1.006,0 0,0 Z m -2.221,1.57 c 0,0.871 -0.011,1.166 -0.024,1.731 -0.013,0.723 -0.221,0.821 -1.105,0.821 -0.134,0 -0.134,0.099 -0.134,0.209 0,0.073 0.024,0.159 0.11,0.159 0.099,0 0.981,-0.049 1.755,-0.049 0.318,0 1.067,0.049 1.791,0.049 1.423,0 3.165,-0.478 3.165,-2.245 0,-1.178 -0.626,-1.754 -1.976,-2.294 -0.06,-0.024 -0.134,-0.049 -0.134,-0.098 0,-0.074 0.613,-1.203 1.754,-2.577 0.883,-1.067 0.994,-1.214 1.73,-1.226 0.086,0 0.086,-0.073 0.086,-0.148 0,-0.134 -0.037,-0.183 -0.148,-0.183 -0.061,0 -0.11,0.024 -1.005,0.024 -0.748,0 -0.81,-0.024 -0.872,-0.024 -0.11,0 -0.147,0 -0.22,0.097 -1.019,1.326 -1.828,2.884 -2.27,3.326 -0.503,0.503 -0.785,0.503 -1.288,0.49 l 0,-1.068 c 0,-0.527 0.012,-1.324 0.036,-1.937 0.013,-0.332 0.086,-0.54 1.056,-0.54 0.344,0 0.344,-0.074 0.344,-0.209 0,-0.11 0,-0.159 -0.099,-0.159 -0.086,0 -0.135,0.024 -1.95,0.024 -1.62,0 -1.669,-0.024 -1.755,-0.024 -0.098,0 -0.098,0.049 -0.098,0.159 0,0.135 0,0.209 0.343,0.209 0.785,0 0.859,0.208 0.871,0.54 0.026,0.613 0.037,1.41 0.037,1.937 l 0,3.006 z"
             style="fill:#ffffff;fill-opacity:1;fill-rule:nonzero;stroke:none"
             id="path4227"
             inkscape:connector-curvature="0" /></g><g
           id="g4229"
           transform="translate(416.9014,382.6318)"><path
             d="m 0,0 c -1.804,0 -1.853,-0.024 -1.938,-0.024 -0.099,0 -0.099,0.048 -0.099,0.159 0,0.135 0,0.209 0.258,0.209 0.968,0 1.043,0.208 1.054,0.54 0.025,0.613 0.038,1.41 0.038,1.937 l 0,3.006 c 0,0.871 -0.013,1.166 -0.025,1.731 -0.013,0.723 -0.221,0.821 -1.202,0.821 -0.135,0 -0.135,0.099 -0.135,0.209 0,0.073 0.025,0.159 0.111,0.159 0.097,0 1.165,-0.049 1.938,-0.049 1.435,0 3.226,0.049 4.122,0.049 0.281,0 0.441,0 0.466,-0.098 C 4.907,7.521 5.128,6.993 5.128,6.919 5.128,6.846 5.054,6.833 4.943,6.833 4.747,6.833 4.649,7.189 3.569,8.097 3.386,8.257 3.091,8.379 2.723,8.379 2.404,8.379 1.349,8.33 0.883,8.306 0.601,8.293 0.527,8.048 0.527,7.36 l 0,-2.821 0.822,0 c 1.325,0 1.423,0.54 1.448,0.675 C 2.944,6.122 2.98,6.122 3.066,6.122 3.214,6.122 3.3,6.109 3.3,6.036 l 0,-1.841 C 3.3,3.46 3.361,3.042 3.361,2.735 3.361,2.649 3.275,2.638 3.201,2.638 3.055,2.638 3.03,2.687 3.018,2.772 2.833,4.098 2.612,4.171 1.423,4.171 l -0.896,0 0,-3.165 c 0,-0.479 0.148,-0.638 0.601,-0.638 l 2.92,0 c 0.467,0 1.178,1.178 1.435,1.509 C 5.532,1.926 5.569,1.95 5.643,1.95 5.766,1.95 5.839,1.938 5.839,1.864 5.839,1.828 5.201,0 5.066,0 L 0,0 Z"
             style="fill:#ffffff;fill-opacity:1;fill-rule:nonzero;stroke:none"
             id="path4231"
             inkscape:connector-curvature="0" /></g><g
           id="g4233"
           transform="translate(430.3164,384.4717)"><path
             d="m 0,0 c 0,0.921 -0.491,1.325 -2.209,2.233 -1.018,0.539 -1.864,1.006 -1.864,2.294 0,1.288 0.858,2.491 2.675,2.491 0.871,0 1.374,-0.221 1.656,-0.221 0.135,0 0.232,0.221 0.331,0.221 0.073,0 0.11,-0.062 0.11,-0.16 0,-0.957 0.184,-1.914 0.184,-2 0,-0.061 -0.062,-0.123 -0.122,-0.123 -0.136,0 -0.185,0 -0.209,0.075 -0.344,0.957 -0.847,1.888 -2.012,1.888 -0.859,0 -1.62,-0.6 -1.62,-1.557 0,-0.823 0.504,-1.178 0.957,-1.472 1.411,-0.897 3.288,-1.289 3.288,-3.129 0,-1.804 -1.3,-2.552 -2.969,-2.552 -0.884,0 -1.632,0.099 -2.159,0.172 -0.086,0.013 -0.098,0.025 -0.11,0.148 -0.086,1.312 -0.172,1.802 -0.172,1.864 0,0.099 0.099,0.123 0.245,0.123 0.099,0 0.11,-0.037 0.135,-0.159 0.282,-0.97 0.896,-1.828 2.16,-1.828 C -0.589,-1.692 0,-0.981 0,0"
             style="fill:#ffffff;fill-opacity:1;fill-rule:nonzero;stroke:none"
             id="path4235"
             inkscape:connector-curvature="0" /></g><g
           id="g4237"
           transform="translate(442.7256,391.3301)"><path
             d="m 0,0 c 0.454,0 0.564,0.307 0.761,0.307 0.073,0 0.086,-0.049 0.208,-0.467 0.405,-1.399 0.54,-1.631 0.54,-1.668 0,-0.037 -0.111,-0.098 -0.185,-0.098 -0.085,0 -0.122,0.012 -0.171,0.085 -0.589,1.068 -1.177,1.473 -2.074,1.473 l -1.496,0 c -0.209,0 -0.295,-0.135 -0.295,-0.773 l 0,-4.736 c 0,-0.527 0.013,-1.324 0.037,-1.937 0.013,-0.332 0.086,-0.54 1.055,-0.54 0.344,0 0.344,-0.075 0.344,-0.209 0,-0.111 0,-0.16 -0.098,-0.16 -0.086,0 -0.135,0.025 -1.951,0.025 -1.803,0 -1.853,-0.025 -1.939,-0.025 -0.097,0 -0.097,0.049 -0.097,0.16 0,0.134 0,0.209 0.343,0.209 0.969,0 1.042,0.208 1.055,0.54 0.025,0.613 0.037,1.41 0.037,1.937 l 0,4.736 c 0,0.773 -0.123,0.773 -0.54,0.773 l -1.337,0 c -0.908,0 -1.521,-0.748 -2,-1.473 -0.049,-0.073 -0.098,-0.073 -0.209,-0.073 -0.11,0 -0.171,0.049 -0.171,0.086 0,0.037 0.061,0.086 0.588,1.643 0.05,0.136 0.074,0.492 0.185,0.492 C -7.152,0.307 -7.104,0 -6.601,0 L 0,0 Z"
             style="fill:#ffffff;fill-opacity:1;fill-rule:nonzero;stroke:none"
             id="path4239"
             inkscape:connector-curvature="0" /></g><g
           id="g4241"
           transform="translate(460.9326,384.9141)"><path
             d="m 0,0 c 0.074,0 0.135,-0.013 0.135,-0.147 0,-0.148 -0.171,-1.363 -0.171,-1.62 0,-0.11 -0.05,-0.184 -0.172,-0.221 -0.626,-0.196 -1.632,-0.466 -3.374,-0.466 -3.3,0 -4.539,2.626 -4.539,4.269 0,2.956 2.196,4.76 4.539,4.76 2.086,0 2.441,-0.466 2.772,-0.466 0.221,0 0.307,0.208 0.479,0.208 0.024,0 0.086,-0.024 0.086,-0.146 0,-0.749 0.233,-1.865 0.233,-1.963 0,-0.11 -0.147,-0.16 -0.233,-0.16 -0.037,0 -0.098,0 -0.135,0.098 -0.527,1.35 -1.301,2.11 -2.883,2.11 -1.521,0 -3.398,-1.447 -3.398,-4.392 0,-2.711 1.938,-3.999 3.619,-3.999 0.932,0 2.146,0.515 2.846,2.036 C -0.172,-0.037 -0.122,0 0,0"
             style="fill:#ffffff;fill-opacity:1;fill-rule:nonzero;stroke:none"
             id="path4243"
             inkscape:connector-curvature="0" /></g><g
           id="g4245"
           transform="translate(469.1084,391.1699)"><path
             d="m 0,0 c -2.858,0 -3.079,-3.201 -3.079,-4.207 0,-1.693 0.822,-4.184 3.079,-4.184 2.896,0 3.092,2.736 3.092,4.196 C 3.092,-2.44 2.27,0 0,0 m 0,-8.71 c -3.3,0 -4.539,2.626 -4.539,4.27 0,2.956 2.196,4.759 4.539,4.759 2.601,0 4.552,-1.557 4.552,-4.698 C 4.552,-6.084 3.313,-8.71 0,-8.71"
             style="fill:#ffffff;fill-opacity:1;fill-rule:nonzero;stroke:none"
             id="path4247"
             inkscape:connector-curvature="0" /></g><g
           id="g4249"
           transform="translate(478.3379,388.459)"><path
             d="m 0,0 c 0,0.871 -0.012,1.166 -0.024,1.73 -0.013,0.724 -0.221,0.822 -1.227,0.822 -0.136,0 -0.136,0.098 -0.136,0.209 0,0.073 0.026,0.159 0.112,0.159 0.097,0 1.103,-0.049 1.877,-0.049 0.785,0 1.852,0.049 1.95,0.049 0.086,0 0.11,-0.086 0.11,-0.159 0,-0.111 0,-0.209 -0.135,-0.209 C 1.46,2.552 1.251,2.454 1.239,1.73 1.227,1.166 1.215,0.871 1.215,0 l 0,-3.006 c 0,-0.527 0.012,-1.324 0.036,-1.937 0.013,-0.443 0.356,-0.504 1.288,-0.504 1.89,0 2.785,0.061 3.362,1.803 0.086,0.258 0.061,0.344 0.171,0.344 0.234,0 0.258,-0.037 0.258,-0.147 0,-0.062 -0.258,-1.068 -0.466,-2.307 -0.012,-0.073 -0.061,-0.098 -0.123,-0.098 -0.135,0 -0.282,0.025 -5.079,0.025 -1.803,0 -1.851,-0.025 -1.937,-0.025 -0.099,0 -0.099,0.049 -0.099,0.16 0,0.134 0,0.209 0.282,0.209 0.969,0 1.043,0.208 1.055,0.54 C -0.012,-4.33 0,-3.533 0,-3.006 L 0,0 Z"
             style="fill:#ffffff;fill-opacity:1;fill-rule:nonzero;stroke:none"
             id="path4251"
             inkscape:connector-curvature="0" /></g><g
           id="g4253"
           transform="translate(489.1885,388.459)"><path
             d="m 0,0 c 0,0.871 -0.013,1.166 -0.024,1.73 -0.013,0.724 -0.221,0.822 -1.227,0.822 -0.135,0 -0.135,0.098 -0.135,0.209 0,0.073 0.025,0.159 0.111,0.159 0.097,0 1.103,-0.049 1.877,-0.049 0.785,0 1.852,0.049 1.95,0.049 0.086,0 0.11,-0.086 0.11,-0.159 0,-0.111 0,-0.209 -0.135,-0.209 C 1.46,2.552 1.251,2.454 1.239,1.73 1.227,1.166 1.215,0.871 1.215,0 l 0,-3.006 c 0,-0.527 0.012,-1.324 0.036,-1.937 0.013,-0.443 0.356,-0.504 1.289,-0.504 1.889,0 2.784,0.061 3.361,1.803 0.086,0.258 0.061,0.344 0.172,0.344 0.233,0 0.257,-0.037 0.257,-0.147 0,-0.062 -0.257,-1.068 -0.466,-2.307 -0.012,-0.073 -0.061,-0.098 -0.123,-0.098 -0.135,0 -0.282,0.025 -5.079,0.025 -1.803,0 -1.852,-0.025 -1.937,-0.025 -0.099,0 -0.099,0.049 -0.099,0.16 0,0.134 0,0.209 0.282,0.209 0.969,0 1.043,0.208 1.055,0.54 C -0.013,-4.33 0,-3.533 0,-3.006 L 0,0 Z"
             style="fill:#ffffff;fill-opacity:1;fill-rule:nonzero;stroke:none"
             id="path4255"
             inkscape:connector-curvature="0" /></g><g
           id="g4257"
           transform="translate(500.7266,382.6318)"><path
             d="m 0,0 c -1.804,0 -1.853,-0.024 -1.938,-0.024 -0.099,0 -0.099,0.048 -0.099,0.159 0,0.135 0,0.209 0.258,0.209 0.968,0 1.043,0.208 1.054,0.54 0.026,0.613 0.038,1.41 0.038,1.937 l 0,3.006 c 0,0.871 -0.012,1.166 -0.025,1.731 -0.013,0.723 -0.221,0.821 -1.202,0.821 -0.135,0 -0.135,0.099 -0.135,0.209 0,0.073 0.025,0.159 0.111,0.159 0.097,0 1.165,-0.049 1.938,-0.049 1.435,0 3.227,0.049 4.122,0.049 0.282,0 0.441,0 0.466,-0.098 C 4.907,7.521 5.128,6.993 5.128,6.919 5.128,6.846 5.054,6.833 4.943,6.833 4.747,6.833 4.649,7.189 3.569,8.097 3.386,8.257 3.091,8.379 2.723,8.379 2.404,8.379 1.349,8.33 0.883,8.306 0.601,8.293 0.527,8.048 0.527,7.36 l 0,-2.821 0.822,0 c 1.325,0 1.423,0.54 1.448,0.675 C 2.944,6.122 2.98,6.122 3.066,6.122 3.214,6.122 3.3,6.109 3.3,6.036 l 0,-1.841 C 3.3,3.46 3.361,3.042 3.361,2.735 3.361,2.649 3.275,2.638 3.201,2.638 3.055,2.638 3.029,2.687 3.018,2.772 2.834,4.098 2.612,4.171 1.423,4.171 l -0.896,0 0,-3.165 c 0,-0.479 0.147,-0.638 0.601,-0.638 l 2.92,0 c 0.467,0 1.178,1.178 1.435,1.509 C 5.532,1.926 5.569,1.95 5.643,1.95 5.766,1.95 5.839,1.938 5.839,1.864 5.839,1.828 5.201,0 5.066,0 L 0,0 Z"
             style="fill:#ffffff;fill-opacity:1;fill-rule:nonzero;stroke:none"
             id="path4259"
             inkscape:connector-curvature="0" /></g><g
           id="g4261"
           transform="translate(516.8652,385.5273)"><path
             d="m 0,0 c 0,0.27 -0.16,0.368 -1.129,0.368 -0.748,0 -0.748,0.073 -0.748,0.208 0,0.111 0,0.16 0.221,0.16 0.086,0 0.417,-0.025 2.232,-0.025 1.718,0 1.767,0.025 1.853,0.025 0.097,0 0.097,-0.049 0.097,-0.16 0,-0.135 0,-0.208 -0.256,-0.208 -0.97,0 -1.056,-0.209 -1.056,-0.553 l 0,-1.68 c 0,-0.344 0.344,-0.393 0.344,-0.539 0,-0.099 -0.013,-0.136 -0.209,-0.198 -0.859,-0.306 -2.33,-0.465 -3.913,-0.465 -3.3,0 -4.54,2.626 -4.54,4.269 0,2.956 2.197,4.76 4.54,4.76 1.557,0 2.551,-0.208 3.385,-0.797 C 0.858,5.14 0.969,5.079 1.03,5.079 c 0.086,0 0.282,0.233 0.38,0.233 0.086,0 0.086,-0.037 0.086,-0.54 0,-1.325 0.062,-1.459 0.062,-1.656 0,-0.086 -0.135,-0.123 -0.258,-0.123 -0.049,0 -0.208,0.356 -0.368,0.884 -0.319,0.98 -1.386,1.766 -3.177,1.766 -1.522,0 -3.399,-1.448 -3.399,-4.392 0,-2.711 1.939,-3.999 3.62,-3.999 1.226,0 2.024,0.135 2.024,0.883 L 0,0 Z"
             style="fill:#ffffff;fill-opacity:1;fill-rule:nonzero;stroke:none"
             id="path4263"
             inkscape:connector-curvature="0" /></g><g
           id="g4265"
           transform="translate(524.2178,382.6318)"><path
             d="m 0,0 c -1.804,0 -1.853,-0.024 -1.938,-0.024 -0.099,0 -0.099,0.048 -0.099,0.159 0,0.135 0,0.209 0.258,0.209 0.968,0 1.043,0.208 1.054,0.54 0.025,0.613 0.038,1.41 0.038,1.937 l 0,3.006 c 0,0.871 -0.013,1.166 -0.025,1.731 -0.013,0.723 -0.221,0.821 -1.202,0.821 -0.135,0 -0.135,0.099 -0.135,0.209 0,0.073 0.025,0.159 0.111,0.159 0.097,0 1.165,-0.049 1.938,-0.049 1.435,0 3.226,0.049 4.122,0.049 0.281,0 0.441,0 0.466,-0.098 C 4.907,7.521 5.128,6.993 5.128,6.919 5.128,6.846 5.054,6.833 4.943,6.833 4.747,6.833 4.649,7.189 3.569,8.097 3.386,8.257 3.091,8.379 2.723,8.379 2.404,8.379 1.349,8.33 0.883,8.306 0.601,8.293 0.527,8.048 0.527,7.36 l 0,-2.821 0.822,0 c 1.325,0 1.423,0.54 1.448,0.675 C 2.944,6.122 2.98,6.122 3.066,6.122 3.214,6.122 3.3,6.109 3.3,6.036 l 0,-1.841 C 3.3,3.46 3.361,3.042 3.361,2.735 3.361,2.649 3.275,2.638 3.201,2.638 3.055,2.638 3.03,2.687 3.018,2.772 2.833,4.098 2.612,4.171 1.423,4.171 l -0.896,0 0,-3.165 c 0,-0.479 0.148,-0.638 0.601,-0.638 l 2.92,0 c 0.467,0 1.178,1.178 1.435,1.509 C 5.532,1.926 5.569,1.95 5.643,1.95 5.766,1.95 5.839,1.938 5.839,1.864 5.839,1.828 5.201,0 5.066,0 L 0,0 Z"
             style="fill:#ffffff;fill-opacity:1;fill-rule:nonzero;stroke:none"
             id="path4267"
             inkscape:connector-curvature="0" /></g></g></g></g></svg>